<svg version="1.1" xmlns="http://www.w3.org/2000/svg" viewBox="0 0 612 455.5" width="612" height="455.5">
  <!-- svg-source:excalidraw -->
  
  <defs>
    <style>
      @font-face {
        font-family: "Virgil";
        src: url("https://excalidraw.com/Virgil.woff2");
      }
      @font-face {
        font-family: "Cascadia";
        src: url("https://excalidraw.com/Cascadia.woff2");
      }
    </style>
  </defs>
  <rect x="0" y="0" width="612" height="455.5" fill="#ffffff"></rect><g stroke-linecap="round" transform="translate(69 52.5) rotate(0 235 127)"><path d="M-0.8 -0.87 C104.36 -2.26, 208.21 -1.6, 470.16 0.44 M0.15 0.36 C96.3 0.13, 191.58 0.17, 470.14 0.07 M469.76 0.98 C470.96 99.06, 470.92 195.32, 469.61 253.23 M469.59 -0.31 C468.82 76.6, 468.97 151.89, 469.45 254.32 M470.34 254.71 C332.42 253.17, 195.79 251.93, -0.48 253.15 M470.27 254.17 C365.71 251.6, 260.52 252.01, -0.27 254.05 M0.44 254.17 C-1.51 158.99, -2.09 64.72, -0.08 -0.78 M0.29 253.61 C0.68 158.6, 1.66 63.46, 0.33 0.11" stroke="#000000" stroke-width="1" fill="none"></path></g><g transform="translate(242 10) rotate(0 38 13)"><text x="0" y="18" font-family="Virgil, Segoe UI Emoji" font-size="20px" fill="#000000" text-anchor="start" style="white-space: pre;" direction="ltr">Memoria</text></g><g stroke-linecap="round" transform="translate(400 231.5) rotate(0 57.5 25)"><path d="M-0.09 -0.96 C35.68 -1.87, 69.73 0.27, 114.05 -1.91 M0.41 0.14 C36.35 -1.14, 72.49 0, 114.79 0.98 M116.15 -0.34 C115.6 15.13, 116.42 27, 113.7 49.44 M115.34 0.47 C115.07 11.56, 113.86 22.89, 114.07 49.16 M113.2 51.47 C78.58 52.08, 42.9 51.04, -0.47 48.3 M115.73 49.82 C81.37 49.19, 50.05 50.55, 0.47 50.73 M-1.21 50.2 C0.73 35.36, 1.23 18.86, -0.08 1.69 M-0.1 49.4 C0.47 38.78, -0.45 29.22, -0.83 -0.41" stroke="#000000" stroke-width="1" fill="none"></path></g><g transform="translate(407 197.5) rotate(0 50 13)"><text x="0" y="18" font-family="Virgil, Segoe UI Emoji" font-size="20px" fill="#000000" text-anchor="start" style="white-space: pre;" direction="ltr">Variavel a</text></g><g transform="translate(433 243.5) rotate(0 24.5 13)"><text x="24.5" y="18" font-family="Virgil, Segoe UI Emoji" font-size="20px" fill="#000000" text-anchor="middle" style="white-space: pre;" direction="ltr">Valor</text></g><g stroke-linecap="round" transform="translate(101 109.5) rotate(0 76 32.5)"><path d="M-1.95 0.94 C45.08 0.7, 90.31 2.23, 153.13 -1.15 M0.94 0.9 C56.92 -0.29, 114.88 -0.22, 151.73 0.82 M151.46 1.36 C151.26 23.24, 152.97 49.1, 153.83 64.83 M151.1 -0.97 C151.7 17.53, 152.4 36.25, 151.3 65.46 M153.59 63.73 C98.25 67.08, 45.17 66.58, -1.21 66.32 M151.82 65.71 C95.43 63.23, 39.39 64.09, -0.15 64.56 M1.78 66.78 C0.43 49.66, -1.36 33.76, 1.02 -0.57 M0.91 65.6 C0.38 48.58, -0.86 32.29, 0.7 -0.78" stroke="#862e9c" stroke-width="1" fill="none"></path></g><g transform="translate(126 75.5) rotate(0 50 13)"><text x="0" y="18" font-family="Virgil, Segoe UI Emoji" font-size="20px" fill="#862e9c" text-anchor="start" style="white-space: pre;" direction="ltr">Ponteiro b</text></g><g transform="translate(116 117.5) rotate(0 60.5 26)"><text x="0" y="18" font-family="Virgil, Segoe UI Emoji" font-size="20px" fill="#862e9c" text-anchor="start" style="white-space: pre;" direction="ltr">Endereço da</text><text x="0" y="44" font-family="Virgil, Segoe UI Emoji" font-size="20px" fill="#862e9c" text-anchor="start" style="white-space: pre;" direction="ltr">variavel a</text></g><g stroke-linecap="round"><g transform="translate(262 176.5) rotate(0 62.39266506488434 20.32127516532782)"><path d="M0.12 0.34 C20.67 7.31, 103.18 34.49, 123.92 41.16 M-1.28 -0.52 C19.58 6.2, 105.25 33.19, 126.06 39.65" stroke="#862e9c" stroke-width="1" fill="none"></path></g><g transform="translate(262 176.5) rotate(0 62.39266506488434 20.32127516532782)"><path d="M96.67 39.21 C108.58 39.78, 117.86 38.46, 125.15 41.19 M95.18 41.83 C101.7 41.69, 107.55 41.1, 125.24 40.45" stroke="#862e9c" stroke-width="1" fill="none"></path></g><g transform="translate(262 176.5) rotate(0 62.39266506488434 20.32127516532782)"><path d="M102.8 19.63 C112.46 27.09, 119.57 32.66, 125.15 41.19 M101.31 22.25 C106.72 26.11, 111.31 29.55, 125.24 40.45" stroke="#862e9c" stroke-width="1" fill="none"></path></g></g><g transform="translate(10 315.5) rotate(0 296 65)"><text x="296" y="18" font-family="Virgil, Segoe UI Emoji" font-size="20px" fill="#000000" text-anchor="middle" style="white-space: pre;" direction="ltr">A "variável a" consegue editar seu próprio valor,</text><text x="296" y="44" font-family="Virgil, Segoe UI Emoji" font-size="20px" fill="#000000" text-anchor="middle" style="white-space: pre;" direction="ltr">é possivel acessar o valor de 'a' pela própria variável,</text><text x="296" y="70" font-family="Virgil, Segoe UI Emoji" font-size="20px" fill="#000000" text-anchor="middle" style="white-space: pre;" direction="ltr">porém a partir do ponteiro 'b' eu também consigo chegar em</text><text x="296" y="96" font-family="Virgil, Segoe UI Emoji" font-size="20px" fill="#000000" text-anchor="middle" style="white-space: pre;" direction="ltr">'a' e modificar o seu valor</text><text x="296" y="122" font-family="Virgil, Segoe UI Emoji" font-size="20px" fill="#000000" text-anchor="middle" style="white-space: pre;" direction="ltr"></text></g></svg>